:SAMPLES-PER-SECOND 30
:FULLY-SPECIFIED
:DEGREES
37
root  0.149923 39.3504 -1.11698 -58.1709 -85.4379 55.2755
RightUpLeg  12.4301 -12.7592 -15.0128
RightLeg  13.7717 -0.737583 1.57655
RightFoot  -19.4022 0.224169 5.03125
RightToes  0.000482159 0.542163 -0.142577
Spine  10.864 -0.797505 6.09992
Spine1  11.6786 -0.190976 -0.07471
HEad  6.5106 -2.37512 -4.57152
LeftShoulder1  6.72297 -10.1378 -42.8247
LeftArm  -16.2821 28.7442 -33.7155
LeftForeArm  24.8444 -20.4012 -3.38522
LeftHand  -0.25398 0.0180481 5.50724
RightShoulder  5.06896 8.20892 37.2585
RightArm  -8.68344 -4.05456 24.1402
RightForeArm  11.6408 5.98091 6.44398
RightHand  -0.597554 0.00460075 -12.8444
LeftUpLeg  -21.9071 9.79373 2.45037
LeftLeg  7.16212 14.3216 -2.02196
LeftFoot  -0.738195 0.237163 -2.50074
LeftToes  1.06248e-005 4.65855e-005 -8.18498e-006
38
root  -0.771796 39.0908 -0.637309 -58.4415 -85.6589 55.7573
RightUpLeg  13.8108 -12.807 -16.0375
RightLeg  13.7061 0.394134 1.59446
RightFoot  -20.0616 0.396266 6.97347
RightToes  0.000482159 0.542163 -0.142577
Spine  11.3909 -0.903666 5.47397
Spine1  11.2769 -0.403281 0.123859
HEad  6.21561 -2.20319 -3.84204
LeftShoulder1  6.74286 -10.2501 -42.5872
LeftArm  -18.1694 28.0335 -32.3284
LeftForeArm  26.3215 -24.1596 -3.76182
LeftHand  -0.25398 0.0180481 5.50724
RightShoulder  4.86775 7.93435 36.5586
RightArm  -11.7531 0.572031 23.1789
RightForeArm  6.45055 6.55508 6.19387
RightHand  -0.853812 1.1725 -15.1967
LeftUpLeg  -23.235 11.6462 2.05381
LeftLeg  8.25084 15.0395 -1.46777
LeftFoot  -1.10351 0.172479 -1.84262
LeftToes  1.06248e-005 4.65855e-005 -8.18498e-006
39
root  -1.81057 38.8116 -0.0535202 -63.093 -85.7757 60.5811
RightUpLeg  15.1008 -12.9395 -17.603
RightLeg  14.118 1.55997 1.38471
RightFoot  -20.3197 0.561594 8.89966
RightToes  0.000482159 0.542163 -0.142577
Spine  11.7944 -0.894991 5.03863
Spine1  10.9765 -0.320861 -0.212949
HEad  5.86112 -2.5321 -2.83135
LeftShoulder1  6.8039 -10.4488 -42.3477
LeftArm  -19.4109 27.1004 -30.7871
LeftForeArm  28.26 -27.2614 -4.34608
LeftHand  -0.25398 0.0180481 5.50724
RightShoulder  4.65931 7.71488 35.5592
RightArm  -13.4653 3.64153 22.7855
RightForeArm  0.550306 9.46577 6.36668
RightHand  -1.12128 2.37235 -16.9322
LeftUpLeg  -24.6322 16.4236 -0.447876
LeftLeg  11.5332 13.1997 0.421447
LeftFoot  -1.35609 0.0862933 -0.901803
LeftToes  1.06248e-005 4.65855e-005 -8.18498e-006
40
root  -2.97575 38.5598 0.632303 -73.3357 -85.6563 70.9457
RightUpLeg  16.1113 -12.6993 -19.6605
RightLeg  15.1354 2.57657 0.917834
RightFoot  -19.9773 0.667325 10.5954
RightToes  0.000482159 0.542163 -0.142577
Spine  12.0562 -0.737649 4.57457
Spine1  10.695 0.0512386 -1.01376
HEad  5.65425 -3.20126 -1.71864
LeftShoulder1  6.78828 -10.5688 -41.8582
LeftArm  -19.9257 26.0639 -29.551
LeftForeArm  29.7954 -29.553 -4.77757
LeftHand  -0.25398 0.0180481 5.50724
RightShoulder  4.55698 7.71566 34.6613
RightArm  -11.9615 5.13353 22.4344
RightForeArm  -6.1335 14.5238 6.30808
RightHand  -1.28518 3.1701 -17.6074
LeftUpLeg  -25.5511 21.1556 -3.61101
LeftLeg  14.8541 10.527 2.36898
LeftFoot  0.237472 -0.0740211 0.680715
LeftToes  1.06248e-005 4.65855e-005 -8.18498e-006
41
root  -4.21513 38.3297 1.36897 -79.807 -84.9198 77.3563
RightUpLeg  16.953 -10.721 -21.6614
RightLeg  16.8235 2.70973 0.456301
RightFoot  -19.1049 0.851257 14.4407
RightToes  0.000482159 0.542163 -0.142577
Spine  12.6143 -0.606822 3.2593
Spine1  10.1094 0.189671 -1.50105
HEad  5.77083 -4.02064 -0.758649
LeftShoulder1  6.74291 -10.6288 -41.3691
LeftArm  -20.1853 25.004 -28.6041
LeftForeArm  30.8074 -30.958 -5.0473
LeftHand  -0.25398 0.0180481 5.50724
RightShoulder  4.61421 7.98209 34.2216
RightArm  -8.86387 5.49869 21.7261
RightForeArm  -11.4459 20.7528 5.73633
RightHand  -1.32703 3.40125 -17.7031
LeftUpLeg  -26.0085 23.4982 -6.14545
LeftLeg  18.2188 8.38875 3.44265
LeftFoot  2.94518 -0.305323 2.30076
LeftToes  1.06248e-005 4.65855e-005 -8.18498e-006
